<svg width="21" height="13" viewBox="0 0 21 13" fill="none" xmlns="http://www.w3.org/2000/svg">
<path d="M19.7471 1.29282C19.4098 0.902357 18.863 0.902291 18.5257 1.29289L10.5002 10.5858L2.47433 1.29282C2.13711 0.902357 1.59025 0.902291 1.25297 1.29289C0.915693 1.68342 0.915693 2.31656 1.25297 2.70709L9.88957 12.7071C10.0515 12.8946 10.2712 13 10.5002 13C10.7293 13 10.949 12.8946 11.1109 12.707L19.747 2.70702C20.0843 2.31656 20.0843 1.68336 19.7471 1.29282Z" fill="#D6D6D6"/>
<path d="M18.5257 1.29289C18.863 0.902291 19.4098 0.902357 19.7471 1.29282C20.0843 1.68336 20.0843 2.31656 19.747 2.70702C20.494 1.91407 20.5001 0.999974 19.7471 0.499974C19.1447 0.0999745 18.6647 0.333291 18.5 0.499957L10.5 9.99996L10.5002 10.5858L18.5257 1.29289Z" fill="#D6D6D6"/>
<path d="M2.47433 1.29282L10.5002 10.5858L10.5 9.99996L2.50001 0.499983C2.16667 0.166649 1.49999 0.499957 0.999999 0.999983C0.367565 1.63246 1.00199 2.47139 1.25297 2.70709C0.915693 2.31656 0.915693 1.68342 1.25297 1.29289C1.59025 0.902291 2.13711 0.902357 2.47433 1.29282Z" fill="#D6D6D6"/>
</svg>
