<svg width="68" height="68" viewBox="0 0 68 68" fill="none" xmlns="http://www.w3.org/2000/svg">
<path d="M43.4407 24.5593C45.8951 24.4856 48.2243 23.4588 49.9344 21.6967C51.6444 19.9345 52.6009 17.5756 52.6009 15.12C52.6009 12.6645 51.6444 10.3056 49.9344 8.54339C48.2243 6.78123 45.8951 5.75445 43.4407 5.68079H24.5593C22.1049 5.75445 19.7757 6.78123 18.0656 8.54339C16.3556 10.3056 15.3991 12.6645 15.3991 15.12C15.3991 17.5756 16.3556 19.9345 18.0656 21.6967C19.7757 23.4588 22.1049 24.4856 24.5593 24.5593C22.0835 24.6022 19.7235 25.6158 17.9878 27.3819C16.252 29.148 15.2794 31.5251 15.2794 34.0014C15.2794 36.4776 16.252 38.8548 17.9878 40.6208C19.7235 42.3869 22.0835 43.4006 24.5593 43.4435C22.0956 43.5038 19.753 44.525 18.0318 46.2888C16.3106 48.0527 15.3471 50.4196 15.3471 52.8841C15.3471 55.3486 16.3106 57.7155 18.0318 59.4794C19.753 61.2433 22.0956 62.2644 24.5593 62.3248C27.0632 62.3233 29.464 61.3278 31.2342 59.557C33.0045 57.7863 33.9992 55.3851 34 52.8813V24.5593H43.4407Z" fill="#A9B8CB"/>
<path d="M43.4407 43.4407C48.6546 43.4407 52.8813 39.2139 52.8813 34C52.8813 28.7861 48.6546 24.5593 43.4407 24.5593C38.2267 24.5593 34 28.7861 34 34C34 39.2139 38.2267 43.4407 43.4407 43.4407Z" fill="#A9B8CB"/>
</svg>
