<svg width="60" height="60" viewBox="0 0 60 60" fill="none" xmlns="http://www.w3.org/2000/svg">
<path d="M58.8658 27.3262L32.6671 1.132C32.3084 0.77312 31.8825 0.488435 31.4138 0.294203C30.945 0.0999716 30.4426 0 29.9351 0C29.4277 0 28.9253 0.0999716 28.4565 0.294203C27.9878 0.488435 27.5619 0.77312 27.2032 1.132L21.7654 6.56959L28.6657 13.4697C29.4795 13.1919 30.355 13.1484 31.1924 13.3443C32.0297 13.5401 32.7951 13.9675 33.4012 14.5775C34.0073 15.1875 34.4297 15.9556 34.6202 16.7941C34.8107 17.6326 34.7616 18.5078 34.4785 19.3198L41.1275 25.9724C42.1112 25.6261 43.1836 25.625 44.168 25.9695C45.1523 26.3139 45.9901 26.9832 46.5433 27.8673C47.0964 28.7514 47.332 29.7975 47.2113 30.8334C47.0906 31.8693 46.6207 32.8331 45.879 33.5663C45.1281 34.3217 44.1383 34.7931 43.0785 34.8997C42.0188 35.0064 40.9549 34.7419 40.0685 34.1513C39.1821 33.5607 38.5283 32.6807 38.2188 31.6616C37.9092 30.6425 37.963 29.5475 38.3711 28.5637L32.1721 22.3611V38.6852C33.1144 39.1516 33.8683 39.9268 34.3083 40.8817C34.7482 41.8366 34.8476 42.9134 34.5899 43.9326C34.3321 44.9519 33.7328 45.8521 32.8919 46.483C32.0509 47.114 31.0191 47.4377 29.9684 47.4002C28.9177 47.3627 27.9116 46.9662 27.1177 46.2768C26.3239 45.5875 25.7904 44.6468 25.606 43.6118C25.4216 42.5767 25.5976 41.5098 26.1046 40.5887C26.6115 39.6676 27.4188 38.9481 28.392 38.5501V22.0761C27.8305 21.8461 27.3202 21.5072 26.8903 21.079C26.4605 20.6507 26.1196 20.1417 25.8875 19.5811C25.6553 19.0206 25.5364 18.4196 25.5375 17.8129C25.5387 17.2061 25.66 16.6057 25.8943 16.046L19.0953 9.24339L1.13202 27.2062C0.77314 27.5649 0.488447 27.9908 0.294211 28.4595C0.0999741 28.9283 0 29.4307 0 29.9381C0 30.4455 0.0999741 30.948 0.294211 31.4167C0.488447 31.8855 0.77314 32.3113 1.13202 32.67L27.3307 58.868C27.6894 59.2269 28.1153 59.5116 28.584 59.7058C29.0528 59.9 29.5552 60 30.0627 60C30.5701 60 31.0725 59.9 31.5413 59.7058C32.01 59.5116 32.4359 59.2269 32.7946 58.868L58.8695 32.7938C59.5934 32.0689 60 31.0863 60 30.0619C60 29.0374 59.5934 28.0549 58.8695 27.33" fill="#A9B8CB"/>
</svg>
