<svg width="50" height="58" viewBox="0 0 50 58" fill="none" xmlns="http://www.w3.org/2000/svg">
<mask id="mask0_3_94" style="mask-type:luminance" maskUnits="userSpaceOnUse" x="0" y="0" width="50" height="58">
<path d="M44.2425 2H4.85313C4.45594 2.00005 4.06314 2.08301 3.69985 2.24359C3.33657 2.40417 3.01081 2.63882 2.74343 2.93253C2.47604 3.22624 2.27292 3.57253 2.14706 3.94925C2.02119 4.32597 1.97536 4.72482 2.0125 5.12027L5.84757 46.0191C5.89401 46.5168 6.07042 46.9937 6.35913 47.4018C6.64783 47.81 7.0387 48.1351 7.49259 48.3447L23.3522 55.6638C23.727 55.8368 24.135 55.9264 24.5478 55.9264C24.9606 55.9264 25.3685 55.8368 25.7434 55.6638L41.603 48.3447C42.0571 48.1353 42.4483 47.8102 42.7373 47.4021C43.0262 46.9939 43.2029 46.517 43.2494 46.0191L47.0831 5.12027C47.1202 4.72482 47.0744 4.32597 46.9485 3.94925C46.8227 3.57253 46.6195 3.22624 46.3522 2.93253C46.0848 2.63882 45.759 2.40417 45.3957 2.24359C45.0324 2.08301 44.6396 2.00005 44.2425 2Z" fill="white" stroke="white" stroke-width="4"/>
<path d="M35.9617 11.9872H13.1339L14.5606 24.8278H34.5349L33.1082 40.5219L24.5478 44.8021L15.9874 40.5219L15.274 33.3882" stroke="black" stroke-width="6" stroke-linecap="round" stroke-linejoin="round"/>
</mask>
<g mask="url(#mask0_3_94)">
<path d="M-11.2469 -5.45728H60.3425V66.1322H-11.2469V-5.45728Z" fill="#A9B8CB"/>
</g>
</svg>
