<svg width="58" height="58" viewBox="0 0 58 58" fill="none" xmlns="http://www.w3.org/2000/svg">
<path d="M0 4C0 1.79086 1.79086 0 4 0H54C56.2091 0 58 1.79086 58 4V54C58 56.2091 56.2091 58 54 58H4C1.79086 58 0 56.2091 0 54V4ZM17.3291 47.2064C16.1432 47.9197 15.6518 49.4554 16.5463 50.5114C18.0115 52.2412 20.2324 53.4567 23.4256 53.4567C28.2589 53.4567 31.5778 50.8789 31.5778 45.24V29.3544C31.5778 27.8418 30.3515 26.6156 28.8389 26.6156V26.6156C27.3262 26.6156 26.1 27.8418 26.1 29.3544V45.1111C26.1 47.8822 24.9722 48.5911 23.2 48.5911C22.4088 48.5911 21.8139 48.3601 21.3249 47.9787C20.1334 47.0494 18.6241 46.4276 17.3291 47.2064V47.2064ZM36.6905 46.6182C35.4678 47.327 34.9857 48.9028 35.92 49.9632C37.7515 52.0421 40.5715 53.4567 44.4667 53.4567C49.6222 53.4567 53.4889 50.7822 53.4889 45.8522C53.4889 41.3089 50.8789 39.2789 46.2389 37.2811L44.8856 36.7011C42.5333 35.7022 41.5344 35.0256 41.5344 33.4144C41.5344 32.0933 42.5333 31.0622 44.1444 31.0622C44.7921 31.0622 45.3493 31.1809 45.8469 31.4418C47.1437 32.1218 48.6987 32.7224 49.9185 31.9123V31.9123C51.0209 31.1802 51.4029 29.6762 50.4879 28.7202C48.8597 27.019 46.7738 26.3256 44.1444 26.3256C39.2789 26.3256 36.1533 29.4189 36.1533 33.5111C36.1533 37.9578 38.7633 40.0522 42.6944 41.7278L44.0478 42.3078C46.5611 43.4033 48.0433 44.08 48.0433 45.9489C48.0433 47.4956 46.5933 48.6233 44.3378 48.6233C42.7453 48.6233 41.5527 48.1321 40.6035 47.3265C39.4957 46.3863 37.9475 45.8894 36.6905 46.6182V46.6182Z" fill="#A9B8CB"/>
</svg>
