<svg width="53" height="53" viewBox="0 0 53 53" fill="none" xmlns="http://www.w3.org/2000/svg">
<path d="M47.3066 49.4478C46.9741 52.2826 43.8647 53.867 41.3757 52.4697L2.55681 30.6767C0.785026 29.682 0.0264221 27.5093 0.926686 25.6877C2.84867 21.7988 5.19393 18.1791 7.96246 14.8287C11.4846 10.5649 15.7406 7.16189 20.7302 4.61954C25.7198 2.0772 30.9691 0.623665 36.4779 0.258947C40.8202 -0.0306084 45.1419 0.204711 49.4433 0.964906C51.4339 1.31673 52.7313 3.20103 52.4958 5.20877L47.3066 49.4478ZM23.5814 26.7356C24.6952 26.1681 25.4426 25.2957 25.8236 24.1184C26.2074 22.942 26.1155 21.7969 25.548 20.6831C24.9805 19.5694 24.1081 18.822 22.9308 18.4409C21.7544 18.0572 20.6093 18.1491 19.4955 18.7166C18.3818 19.284 17.6344 20.1564 17.2533 21.3337C16.8696 22.5102 16.9615 23.6553 17.529 24.769C18.0964 25.8828 18.9688 26.6302 20.1462 27.0112C21.3226 27.395 22.4677 27.3031 23.5814 26.7356ZM37.0739 36.6958C38.1876 36.1283 38.935 35.2559 39.3161 34.0786C39.6998 32.9021 39.6079 31.757 39.0404 30.6433C38.4729 29.5295 37.6005 28.7821 36.4232 28.4011C35.2468 28.0174 34.1017 28.1092 32.9879 28.6767C31.8742 29.2442 31.1268 30.1166 30.7457 31.2939C30.362 32.4703 30.4539 33.6154 31.0214 34.7292C31.5889 35.843 32.4613 36.5904 33.6386 36.9714C34.815 37.3551 35.9601 37.2633 37.0739 36.6958Z" fill="#B1C0B1"/>
</svg>
