<svg width="63" height="57" viewBox="0 0 63 57" fill="none" xmlns="http://www.w3.org/2000/svg">
<path d="M8.59091 37.05H14.3182C15.8371 37.05 17.2939 37.6505 18.368 38.7195C19.442 39.7884 20.0455 41.2383 20.0455 42.75V48.45H22.9091V42.75C22.9091 41.2383 23.5125 39.7884 24.5866 38.7195C25.6606 37.6505 27.1174 37.05 28.6364 37.05H34.3636C35.8826 37.05 37.3394 37.6505 38.4134 38.7195C39.4875 39.7884 40.0909 41.2383 40.0909 42.75V48.45H42.9545V42.75C42.9545 41.2383 43.558 39.7884 44.632 38.7195C45.7061 37.6505 47.1628 37.05 48.6818 37.05H54.4091C55.9281 37.05 57.3848 37.6505 58.4589 38.7195C59.533 39.7884 60.1364 41.2383 60.1364 42.75V48.45H63V57H0V48.45H2.86364V42.75C2.86364 41.2383 3.46704 39.7884 4.54112 38.7195C5.61519 37.6505 7.07194 37.05 8.59091 37.05ZM28.6364 14.25L40.0909 22.8L28.6364 31.35V14.25ZM8.59091 0H54.4091C55.9281 0 57.3848 0.600534 58.4589 1.66949C59.533 2.73845 60.1364 4.18827 60.1364 5.7V32.889C58.4021 31.8702 56.4229 31.3383 54.4091 31.35V5.7H8.59091V31.35C6.50045 31.35 4.55318 31.8915 2.86364 32.889V5.7C2.86364 4.18827 3.46704 2.73845 4.54112 1.66949C5.61519 0.600534 7.07194 0 8.59091 0Z" fill="#B1C0B1"/>
</svg>
