<svg width="60" height="55" viewBox="0 0 60 55" fill="none" xmlns="http://www.w3.org/2000/svg">
<path d="M30 22.0955C32.8744 22.0955 35.2186 24.4975 35.2186 27.5C35.2186 30.3595 32.8744 32.7901 30 32.7901C27.1256 32.7901 24.7814 30.3595 24.7814 27.5C24.7814 24.4975 27.1256 22.0955 30 22.0955ZM17.0791 50.3761C18.8372 51.4627 22.6884 49.8042 27.1256 45.5149C25.6744 43.8278 24.2512 41.9977 22.9116 40.0818C20.6628 39.8613 18.427 39.5177 16.214 39.0524C14.7907 45.1718 15.3209 49.3752 17.0791 50.3761ZM19.0605 33.9625L18.2512 32.5041C17.9442 33.3334 17.6372 34.1627 17.4419 34.9633C18.1953 35.1349 19.0326 35.2779 19.8977 35.4208L19.0605 33.9625ZM37.3116 31.7893L39.5721 27.5L37.3116 23.2107C36.4744 21.6952 35.5814 20.3512 34.7721 19.0073C33.2651 18.9215 31.6744 18.9215 30 18.9215C28.3256 18.9215 26.7349 18.9215 25.2279 19.0073C24.4186 20.3512 23.5256 21.6952 22.6884 23.2107L20.4279 27.5L22.6884 31.7893C23.5256 33.3048 24.4186 34.6488 25.2279 35.9927C26.7349 36.0785 28.3256 36.0785 30 36.0785C31.6744 36.0785 33.2651 36.0785 34.7721 35.9927C35.5814 34.6488 36.4744 33.3048 37.3116 31.7893ZM30 12.5734C29.4698 13.2025 28.9116 13.8601 28.3535 14.6322H31.6465C31.0884 13.8601 30.5302 13.2025 30 12.5734ZM30 42.4266C30.5302 41.7975 31.0884 41.1399 31.6465 40.3678H28.3535C28.9116 41.1399 29.4698 41.7975 30 42.4266ZM42.893 4.62392C41.1628 3.53731 37.3116 5.19582 32.8744 9.48509C34.3256 11.1722 35.7488 13.0023 37.0884 14.9182C39.3767 15.1469 41.6372 15.4901 43.786 15.9476C45.2093 9.82823 44.6791 5.62475 42.893 4.62392ZM40.9395 21.0375L41.7488 22.4959C42.0558 21.6666 42.3628 20.8373 42.5581 20.0367C41.8046 19.8651 40.9674 19.7221 40.1023 19.5792L40.9395 21.0375ZM44.986 0.877964C49.0884 3.27995 49.5349 9.59947 47.8046 16.977C54.893 19.1216 60 22.6674 60 27.5C60 32.3326 54.893 35.8784 47.8046 38.023C49.5349 45.4005 49.0884 51.72 44.986 54.122C40.9116 56.524 35.3581 53.7789 30 48.546C24.6419 53.7789 19.0884 56.524 14.986 54.122C10.9116 51.72 10.4651 45.4005 12.1953 38.023C5.10698 35.8784 0 32.3326 0 27.5C0 22.6674 5.10698 19.1216 12.1953 16.977C10.4651 9.59947 10.9116 3.27995 14.986 0.877964C19.0884 -1.52402 24.6419 1.2211 30 6.45401C35.3581 1.2211 40.9116 -1.52402 44.986 0.877964ZM44.1767 27.5C45.1256 29.6446 45.9628 31.7893 46.6605 33.9625C52.5209 32.161 55.814 29.5874 55.814 27.5C55.814 25.4126 52.5209 22.839 46.6605 21.0375C45.9628 23.2107 45.1256 25.3554 44.1767 27.5ZM15.8233 27.5C14.8744 25.3554 14.0372 23.2107 13.3395 21.0375C7.47907 22.839 4.18605 25.4126 4.18605 27.5C4.18605 29.5874 7.47907 32.161 13.3395 33.9625C14.0372 31.7893 14.8744 29.6446 15.8233 27.5ZM40.9395 33.9625L40.1023 35.4208C40.9674 35.2779 41.8046 35.1349 42.5581 34.9633C42.3628 34.1627 42.0558 33.3334 41.7488 32.5041L40.9395 33.9625ZM32.8744 45.5149C37.3116 49.8042 41.1628 51.4627 42.893 50.3761C44.6791 49.3752 45.2093 45.1718 43.786 39.0524C41.6372 39.5099 39.3767 39.8531 37.0884 40.0818C35.7488 41.9977 34.3256 43.8278 32.8744 45.5149ZM19.0605 21.0375L19.8977 19.5792C19.0326 19.7221 18.1953 19.8651 17.4419 20.0367C17.6372 20.8373 17.9442 21.6666 18.2512 22.4959L19.0605 21.0375ZM27.1256 9.48509C22.6884 5.19582 18.8372 3.53731 17.0791 4.62392C15.3209 5.62475 14.7907 9.82823 16.214 15.9476C18.427 15.4823 20.6628 15.1387 22.9116 14.9182C24.2512 13.0023 25.6744 11.1722 27.1256 9.48509Z" fill="#A9B8CB"/>
</svg>
