<svg width="67" height="64" viewBox="0 0 67 64" fill="none" xmlns="http://www.w3.org/2000/svg">
<path d="M49.1972 16.6477C46.4506 8.5785 40.5445 3 33.707 3C24.2424 3 16.5689 11.9802 16.5689 25.1639C16.5689 31.8376 21.9666 41.2921 25.1397 45.6354" stroke="#A9B8CB" stroke-width="5" stroke-linecap="round" stroke-linejoin="round"/>
<path d="M8.83752 33.6357C3.18737 40.0399 1.28351 47.9147 4.70568 53.8036C9.43802 61.9581 22.2362 63.4628 33.7105 56.8744C39.521 53.5341 43.5198 45.4035 45.7068 40.5039" stroke="#A9B8CB" stroke-width="5" stroke-linecap="round" stroke-linejoin="round"/>
<path d="M43.9906 60.9687C52.5579 60.9687 59.4227 59.4743 62.7118 53.8037C67.4442 45.6492 61.9783 33.6972 50.5006 27.1088C44.6935 23.7685 35.6348 22.895 30.2781 23.458" stroke="#A9B8CB" stroke-width="5" stroke-linecap="round" stroke-linejoin="round"/>
<path d="M28.5653 26.4127C30.203 27.3544 32.3013 26.7949 33.2464 25.164C33.6975 24.3802 33.819 23.4495 33.5842 22.5762C33.3494 21.7029 32.7775 20.9586 31.9942 20.5067C31.207 20.0531 30.2721 19.9299 29.3941 20.1639C28.5162 20.3979 27.7667 20.9702 27.3097 21.7555C26.8589 22.5396 26.7379 23.4707 26.9734 24.344C27.2088 25.2173 27.7814 25.9614 28.5653 26.4127ZM21.7653 45.6492C21.7653 46.5541 22.1248 47.4219 22.7646 48.0618C23.4045 48.7016 24.2723 49.0611 25.1772 49.0611C26.0821 49.0611 26.95 48.7016 27.5898 48.0618C28.2297 47.4219 28.5891 46.5541 28.5891 45.6492C28.5891 44.7443 28.2297 43.8764 27.5898 43.2366C26.95 42.5967 26.0821 42.2372 25.1772 42.2372C24.2723 42.2372 23.4045 42.5967 22.7646 43.2366C22.1248 43.8764 21.7653 44.7443 21.7653 45.6492ZM42.2368 40.5313C42.2368 41.4362 42.5963 42.304 43.2362 42.9439C43.876 43.5837 44.7439 43.9432 45.6488 43.9432C46.5537 43.9432 47.4215 43.5837 48.0614 42.9439C48.7012 42.304 49.0607 41.4362 49.0607 40.5313C49.0607 39.6264 48.7012 38.7585 48.0614 38.1187C47.4215 37.4788 46.5537 37.1194 45.6488 37.1194C44.7439 37.1194 43.876 37.4788 43.2362 38.1187C42.5963 38.7585 42.2368 39.6264 42.2368 40.5313Z" stroke="#A9B8CB" stroke-width="2" stroke-linecap="round" stroke-linejoin="round"/>
</svg>
