<svg width="58" height="58" viewBox="0 0 58 58" fill="none" xmlns="http://www.w3.org/2000/svg">
<path d="M0 4C0 1.79086 1.79086 0 4 0H54C56.2091 0 58 1.79086 58 4V54C58 56.2091 56.2091 58 54 58H4C1.79086 58 0 56.2091 0 54V4ZM36.6905 46.6182C35.4678 47.327 34.9857 48.9028 35.92 49.9632C37.7515 52.0421 40.5715 53.4567 44.4667 53.4567C49.6222 53.4567 53.4889 50.7822 53.4889 45.8522C53.4889 41.3089 50.8789 39.2789 46.2389 37.2811L44.8856 36.7011C42.5333 35.7022 41.5344 35.0256 41.5344 33.4144C41.5344 32.0933 42.5333 31.0622 44.1444 31.0622C44.7921 31.0622 45.3493 31.1809 45.8469 31.4418C47.1437 32.1218 48.6987 32.7224 49.9185 31.9123V31.9123C51.0209 31.1802 51.4029 29.6762 50.4879 28.7202C48.8597 27.019 46.7738 26.3256 44.1444 26.3256C39.2789 26.3256 36.1533 29.4189 36.1533 33.5111C36.1533 37.9578 38.7633 40.0522 42.6944 41.7278L44.0478 42.3078C46.5611 43.4033 48.0433 44.08 48.0433 45.9489C48.0433 47.4956 46.5933 48.6233 44.3378 48.6233C42.7453 48.6233 41.5527 48.1321 40.6035 47.3265C39.4957 46.3863 37.9475 45.8894 36.6905 46.6182V46.6182ZM32.2222 29C32.2222 27.6653 31.1402 26.5833 29.8056 26.5833H18.5278C17.1931 26.5833 16.1111 27.6653 16.1111 29V29C16.1111 30.3347 17.1931 31.4167 18.5278 31.4167V31.4167C19.8625 31.4167 20.9444 32.4986 20.9444 33.8333V51.9583C20.9444 53.5155 22.2068 54.7778 23.7639 54.7778V54.7778C25.321 54.7778 26.5833 53.5155 26.5833 51.9583V34.2361C26.5833 32.679 27.8456 31.4167 29.4028 31.4167H29.8056C31.1402 31.4167 32.2222 30.3347 32.2222 29V29Z" fill="#A9B8CB"/>
</svg>
